# xmcd
#
# Track frame offsets:
# 150
# 20185
# 32755
# 49147
# 65481
# 90625
# 108150
# 126040
# 140680
# 150458
# 176634
#
# Disc length: 2776 seconds
#
#
# Revision: 0
# Processed by: cddbd v1.5.2PL0 Copyright (c) Steve Scherf et al.
# Submitted via: FreeRIP 2.35 
#
DISCID=930ad60b
DTITLE=Johannes Nordström - Hågkomster
DYEAR=2006
DGENRE=Ballad
TTITLE0=Då får jag vila
TTITLE1=Hågkomster under ett gammalt täcke
TTITLE2=Sköna skor
TTITLE3=Pekpinnar
TTITLE4=En sång om en sång som en unge skrev som ett brev
TTITLE5=Lever vi i morgon (Emmas sång)
TTITLE6=Så öde ligger världen
TTITLE7=Folk kallar det för strunt
TTITLE8=Kaffe med Konjak
TTITLE9=Hon som sitter här breve
TTITLE10=Stor sak
EXTD=BRCD0602 Baltic Records - CDA
EXTT0=
EXTT1=
EXTT2=
EXTT3=
EXTT4=
EXTT5=
EXTT6=
EXTT7=
EXTT8=
EXTT9=Bonuslåt Morgan Ågren session
EXTT10=Bonuslåt Morgan Ågren session
PLAYORDER=
